<svg width="24" height="18" viewBox="0 0 24 18" fill="none" xmlns="http://www.w3.org/2000/svg">
<path d="M8.65358 17.9512C8.04201 17.9512 7.44362 17.7126 6.99391 17.2624L0.775275 11.0361C-0.320978 9.93871 -0.320978 8.15306 0.775275 7.05553L6.99391 0.829388C7.66792 0.15446 8.67592 -0.0447588 9.56178 0.321819C10.4445 0.687114 11.0149 1.53746 11.0149 2.48778V8.15508H23.0157C23.5335 8.15508 23.9532 8.57494 23.9532 9.09276C23.9532 9.61059 23.5335 10.0303 23.0157 10.0303H11.0149C9.98091 10.0303 9.13972 9.18908 9.13972 8.15508V2.48778C9.13972 2.20689 8.93336 2.09117 8.84474 2.05436C8.75429 2.01701 8.52266 1.95201 8.32051 2.15452L2.10188 8.38066C1.73548 8.74743 1.73548 9.34417 2.10188 9.71111L8.32051 15.9373C8.52266 16.1396 8.75429 16.0746 8.84456 16.0372C8.93336 16.0006 9.13972 15.8849 9.13972 15.604V13.5869C9.13972 13.0691 9.5594 12.6492 10.0772 12.6492C10.595 12.6492 11.0147 13.0691 11.0147 13.5869V15.604C11.0147 16.5543 10.4444 17.4045 9.5616 17.7698C9.26698 17.8919 8.95863 17.9512 8.65358 17.9512Z" fill="white"/>
</svg>
