<svg width="24" height="22" viewBox="0 0 24 22" fill="none" xmlns="http://www.w3.org/2000/svg">
<path d="M12 21.0703C11.6224 21.0703 11.2451 20.9738 10.9085 20.7809C9.56671 20.0123 6.9657 18.3764 4.61975 16.0565C1.5542 13.0253 0 9.89917 0 6.76514C0 4.92566 0.471313 3.48407 1.40094 2.47992C2.35803 1.44611 3.7478 0.921875 5.53125 0.921875C8.4787 0.921875 10.819 3.05359 11.9799 4.36499C13.1006 3.0437 15.3812 0.921875 18.4688 0.921875C20.2443 0.921875 21.6356 1.45966 22.6036 2.52002C23.5302 3.53497 24 4.96338 24 6.76514C24 9.3559 22.9261 11.9602 20.8083 14.5057C20.4771 14.9038 19.8858 14.958 19.4879 14.627C19.09 14.2957 19.0356 13.7047 19.3669 13.3066C21.197 11.1069 22.125 8.90601 22.125 6.76514C22.125 4.09491 20.929 2.79688 18.4688 2.79688C15.1229 2.79688 12.8145 6.35699 12.7916 6.39288C12.6222 6.65857 12.3301 6.82227 12.0152 6.82721C12.0103 6.82721 12.0053 6.82721 12.0005 6.82721C11.6909 6.82721 11.4003 6.67505 11.2256 6.41888C11.2017 6.38391 8.70062 2.79688 5.53125 2.79688C3.0368 2.79688 1.875 4.05774 1.875 6.76514C1.875 9.37988 3.24207 12.0573 5.93811 14.7233C8.21466 16.9744 10.8243 18.5718 11.8407 19.1541C11.939 19.2103 12.0612 19.2103 12.1595 19.1541C12.9921 18.6771 14.6466 17.6647 16.3729 16.243C16.7726 15.9138 17.3635 15.9711 17.6926 16.3707C18.0216 16.7704 17.9645 17.3613 17.5648 17.6903C15.7319 19.1996 13.9755 20.2745 13.0915 20.7809C12.7549 20.9738 12.3774 21.0703 12 21.0703Z" fill="#CBD2D9"/>
</svg>
