<svg width="24" height="24" viewBox="0 0 24 24" fill="none" xmlns="http://www.w3.org/2000/svg">
<path d="M23.7872 6.01482C23.609 5.79765 23.343 5.67186 23.0623 5.67186H6.05857L5.54991 2.79252C5.50047 2.51237 5.32633 2.26976 5.07658 2.13316L1.38737 0.11497C0.933085 -0.133504 0.363444 0.0333052 0.11497 0.48759C-0.133504 0.941875 0.0333051 1.51152 0.48759 1.75999L3.78184 3.56212L6.45445 18.694C5.47117 19.1184 4.78123 20.0971 4.78123 21.2342C4.78123 22.7593 6.02177 23.9998 7.54685 23.9998C8.74272 23.9998 9.76353 23.2366 10.1484 22.1717H15.6324C16.0173 23.2366 17.0381 23.9998 18.2342 23.9998C19.7591 23.9998 20.9998 22.7593 20.9998 21.2342C20.9998 19.7093 19.7591 18.4686 18.2342 18.4686C17.0381 18.4686 16.0173 19.2317 15.6324 20.2967H10.1484C9.85215 19.4771 9.17906 18.8366 8.33915 18.5848L7.99583 16.6404H18.941C20.7229 16.6404 22.2696 15.3721 22.6183 13.6243C22.7197 13.1166 22.3901 12.6229 21.8824 12.5217C21.3748 12.4204 20.881 12.7496 20.7797 13.2574C20.6052 14.1313 19.8319 14.7654 18.941 14.7654H18.9012L19.5476 7.54686H21.9192L21.5535 9.37901C21.4522 9.88677 21.7817 10.3804 22.2894 10.4819C22.3515 10.4941 22.413 10.5002 22.474 10.5002C22.9118 10.5002 23.3033 10.1916 23.3923 9.74596L23.9817 6.79283C24.0366 6.51744 23.9652 6.23198 23.7872 6.01482ZM13.2654 7.54686V14.7654H11.4342L10.7876 7.54686H13.2654ZM7.54685 22.1248C7.05558 22.1248 6.65623 21.7253 6.65623 21.2342C6.65623 20.7431 7.05558 20.3436 7.54685 20.3436C8.03794 20.3436 8.4373 20.7431 8.4373 21.2342C8.4373 21.7253 8.03776 22.1248 7.54685 22.1248ZM18.2342 20.3436C18.7253 20.3436 19.1248 20.7431 19.1248 21.2342C19.1248 21.7253 18.7253 22.1248 18.2342 22.1248C17.7852 22.1248 17.4139 21.7906 17.3533 21.358C17.3586 21.3175 17.3624 21.2763 17.3624 21.2342C17.3624 21.1921 17.3586 21.1511 17.3533 21.1104C17.4139 20.6779 17.7852 20.3436 18.2342 20.3436ZM6.38963 7.54686H8.90513L9.55168 14.7654H7.66459L6.38963 7.54686ZM17.0187 14.7654H15.1404V7.54686H17.6651L17.0187 14.7654Z" fill="white"/>
</svg>
