<svg width="16" height="16" viewBox="0 0 16 16" fill="none" xmlns="http://www.w3.org/2000/svg">
<path d="M12.2064 15.7485C11.9515 15.7485 11.6965 15.6708 11.4727 15.5148L8.12048 13.1798C8.04797 13.1293 7.95056 13.1293 7.87793 13.1798L4.52588 15.5148C4.07092 15.8317 3.48706 15.8259 3.03845 15.5002C2.58936 15.1742 2.40295 14.6202 2.5636 14.0889L3.74805 10.1697C3.77332 10.0861 3.7439 9.99414 3.67468 9.9408L0.500976 7.49146C0.059326 7.15063 -0.109253 6.58765 0.071533 6.05737C0.251953 5.52856 0.727783 5.18677 1.28406 5.18677H5.24536C5.33948 5.18677 5.41821 5.13379 5.44617 5.05188L6.78406 1.12024C6.96423 0.591431 7.44116 0.25 7.99927 0.25C8.55737 0.25 9.03418 0.591431 9.21436 1.12L10.5524 5.05188C10.5802 5.13391 10.6591 5.18677 10.7532 5.18677H14.7163C15.2725 5.18677 15.7482 5.52844 15.9285 6.05713C16.1093 6.5874 15.9407 7.15015 15.499 7.49084L12.3239 9.9408C12.2546 9.99426 12.2252 10.0862 12.2505 10.1697L12.3545 10.514C12.4543 10.8444 12.2675 11.1931 11.937 11.293C11.6068 11.3927 11.2579 11.2059 11.1581 10.8756L11.0541 10.5314C10.8798 9.95447 11.0831 9.31946 11.5603 8.95129L14.7356 6.50134C14.7498 6.49036 14.7496 6.48767 14.749 6.47729C14.7477 6.4574 14.7365 6.44104 14.7319 6.43835C14.7319 6.43835 14.7277 6.43665 14.7163 6.43665H10.7532C10.1252 6.43665 9.56909 6.04199 9.36914 5.45459L8.03125 1.52283C8.02563 1.50659 8.02332 1.49976 7.99927 1.49976C7.9751 1.49976 7.97278 1.50659 7.96716 1.52307L6.62939 5.45447C6.42944 6.04199 5.87329 6.43665 5.24536 6.43665H1.28406C1.27258 6.43665 1.26831 6.43835 1.26831 6.43835C1.26379 6.44092 1.25256 6.45715 1.2511 6.47717C1.25037 6.48804 1.25012 6.49084 1.26453 6.50208L4.43823 8.95129C4.91541 9.31958 5.11877 9.95447 4.94446 10.5312L3.75989 14.4504C3.755 14.4668 3.75269 14.4742 3.7727 14.4888C3.79199 14.5028 3.79773 14.4988 3.81152 14.4891L7.16357 12.1543C7.66345 11.8062 8.33508 11.8062 8.83484 12.1543L12.1869 14.4893C12.2007 14.4988 12.2064 14.5029 12.2257 14.4888C12.2457 14.4742 12.2434 14.4668 12.2385 14.4504L12.0646 13.8751C11.9647 13.5447 12.1516 13.1959 12.4821 13.0961C12.8123 12.9963 13.1611 13.1831 13.261 13.5135L13.4348 14.0889C13.5955 14.6202 13.4091 15.1742 12.96 15.5002C12.7322 15.6656 12.4694 15.7485 12.2064 15.7485V15.7485Z" fill="#F0DF67"/>
</svg>
